<svg width="282" height="32" viewBox="0 0 282 32" fill="none" xmlns="http://www.w3.org/2000/svg">
<g clip-path="url(#clip0_1_89)">
<path d="M17.0461 0.645279H30.2347V6.61775H16.1898C13.6548 6.61775 11.7326 7.09386 10.4232 8.04609C8.63997 8.99983 7.27536 10.8405 6.32933 13.568C6.13807 14.3504 6.03296 15.1521 6.01595 15.9583C6.01595 18.2743 6.86561 20.4521 8.56494 22.4918C9.67722 23.5867 10.7218 24.3114 11.6988 24.6658C12.7699 25.16 14.2404 25.407 16.1104 25.407H30.2347V31.3773H16.7725C13.3311 31.3773 10.7822 30.9507 9.12549 30.0976C5.42229 28.4455 2.76957 25.742 1.16735 21.9871C0.385274 20.0922 -0.0118972 18.055 -0.000111398 15.9989C-0.000111398 11.424 1.77572 7.51891 5.32739 4.28373C7.65201 2.4829 9.75447 1.41953 11.6348 1.09361C12.597 0.796224 14.4008 0.646781 17.0461 0.645279ZM14.4971 13.0566H30.2347V18.9637H14.4971V13.0566Z" fill="white"/>
<path d="M49.9359 14.8769V19.3242H34.6641V14.8769H49.9359Z" fill="white"/>
<path d="M51.2182 0.667816H67.9731C74.0436 0.667816 78.2566 3.37582 80.6121 8.79182C81.1902 10.3443 81.4805 11.9928 81.4684 13.6536C81.4684 17.2583 80.0898 20.4123 77.3327 23.1158C75.6333 24.6508 73.5507 25.6887 71.0849 26.2294C70.1302 26.3667 69.1667 26.4307 68.2026 26.4209L57.2563 26.5493V31.3683H51.1763V20.4777H67.7282C69.888 20.4777 71.4689 20.0654 72.4708 19.2408C73.7523 18.4027 74.6719 17.051 75.2295 15.1856C75.3262 14.7581 75.3817 14.3219 75.395 13.8834V13.2413C75.395 11.6342 74.7197 10.0707 73.369 8.55076C71.9625 7.28762 70.4029 6.65531 68.6904 6.65381H51.2182V0.667816Z" fill="white"/>
<path d="M84.5977 0.667816H90.6556V15.1901C90.6556 19.2558 92.1806 22.2124 95.2306 24.0598C96.568 24.961 98.3438 25.4116 100.558 25.4116H114.888V31.3818H100.763C96.938 31.3818 93.8807 30.564 91.5914 28.9283C90.9543 28.5979 89.9965 27.7996 88.718 26.5335C87.0613 24.629 85.9402 22.7103 85.3546 20.7773C84.8544 19.3129 84.6035 17.2155 84.6021 14.4849L84.5977 0.667816Z" fill="white"/>
<path d="M134.401 0.625H148.305V31.375H142.273V6.61775L136.884 6.63802H135.589C132.58 6.63802 130.908 6.76644 130.574 7.02327C128.752 7.53664 127.148 8.65411 126.015 10.1999C124.678 12.1524 124.009 14.0929 124.009 16.0214C124.009 18.4095 124.914 20.6061 126.726 22.6112C127.938 23.7917 128.983 24.5021 129.859 24.7424C130.742 25.193 132.253 25.4183 134.392 25.4183H138.586V31.3682H133.563C129.83 31.3682 126.676 30.3657 124.099 28.3606C122.234 26.8587 120.988 25.4941 120.361 24.2671C118.8 21.7378 118.02 19.1507 118.021 16.5058V15.6046C118.021 11.9098 119.379 8.5192 122.095 5.43271C123.737 3.80761 125.081 2.78104 126.125 2.35298C127.116 1.83105 128.16 1.42303 129.239 1.13641C130.422 0.79547 132.143 0.625 134.401 0.625Z" fill="white"/>
<path d="M163.623 31.375V26.342C161.197 25.6796 158.929 24.5182 156.958 22.9288C155.302 21.4089 154.222 20.1435 153.721 19.1327C153.024 17.9902 152.483 16.7563 152.112 15.4649C151.67 14.0441 151.45 12.1104 151.45 9.6637V0.667816H157.508V9.94306C157.508 12.6466 158.023 14.7297 159.053 16.1926C159.26 16.6612 159.928 17.4077 161.056 18.432C162.616 19.7416 164.573 20.4576 166.592 20.4576C168.612 20.4576 170.569 19.7416 172.129 18.432C173.257 17.4062 173.926 16.6597 174.135 16.1926C175.165 14.7282 175.679 12.645 175.679 9.94306V0.667816H181.737V9.66595C181.737 12.1126 181.517 14.0464 181.075 15.4672C180.718 16.7635 180.176 17.9993 179.467 19.1349C178.966 20.1442 177.894 21.4096 176.251 22.9311C174.271 24.5166 171.997 25.6768 169.566 26.342V31.375H163.623Z" fill="white"/>
<path d="M201.911 0.645279H215.093V6.61775H201.05C198.517 6.61775 196.595 7.09386 195.286 8.04609C193.502 8.99983 192.138 10.8405 191.192 13.568C191.001 14.3504 190.895 15.1521 190.878 15.9583C190.878 18.2743 191.727 20.4521 193.425 22.4918C194.539 23.5867 195.584 24.3114 196.559 24.6658C197.632 25.163 199.103 25.4123 200.973 25.4138H215.097V31.384H201.635C198.197 31.384 195.648 30.9575 193.99 30.1044C190.285 28.4522 187.633 25.7487 186.032 21.9939C185.248 20.0981 184.85 18.0591 184.862 16.0011C184.862 11.4262 186.637 7.52116 190.188 4.28598C192.517 2.48365 194.621 1.41953 196.502 1.09361C197.462 0.796224 199.265 0.646781 201.911 0.645279ZM199.364 13.0566H215.093V18.9637H199.364V13.0566Z" fill="white"/>
<path d="M218.288 0.645279H237.632C241.051 0.645279 243.725 1.68988 245.654 3.77908C246.401 4.44672 247.012 5.25825 247.451 6.16716C248.167 7.55829 248.553 9.10164 248.578 10.673V11.5471C248.578 13.8 247.622 15.9966 245.709 18.1369C244.484 19.3384 243.37 20.1059 242.368 20.4394C244.902 23.1999 246.168 26.8466 246.168 31.3795H240.091V30.9109C240.091 27.5556 238.76 24.8896 236.1 22.9131C234.582 21.8181 232.596 21.2707 230.142 21.2707H218.288V15.3388H238.007C240.166 15.3388 241.628 14.2514 242.395 12.0766C242.478 11.626 242.534 11.2655 242.562 10.9681C242.562 9.75906 242.068 8.66414 241.079 7.68337C240.316 7.03314 239.356 6.67184 238.362 6.66055C238.362 6.60423 238.071 6.57494 237.48 6.57494H218.28L218.288 0.645279Z" fill="white"/>
<path d="M261.279 0.667805H281.561V6.97596H261.089C259.49 6.97596 258.509 7.77875 258.145 9.38432V9.8349C258.145 10.7871 258.668 11.5832 259.712 12.223C260.031 12.3509 260.371 12.4159 260.714 12.4145H271.009C273.658 12.4145 275.454 12.6916 276.399 13.2458C278.74 14.3137 280.358 15.9418 281.254 18.1301C281.739 19.3871 281.994 20.7241 282.007 22.075C282.007 25.1449 280.6 27.732 277.787 29.8363C276.894 30.4017 275.922 30.8263 274.905 31.0956C274.097 31.2804 272.753 31.3727 270.873 31.3727H251.739L251.717 25.0646H272.272C273.999 25.0646 275.103 24.1972 275.582 22.4625L275.624 21.888C275.624 20.6639 275.036 19.7252 273.859 19.0718C273.357 18.827 272.805 18.7102 272.25 18.7317H260.699C257.677 18.7317 255.156 17.3799 253.138 14.6764C252.295 13.3158 251.837 11.7441 251.814 10.1345V9.30096C251.814 6.14689 253.318 3.65216 256.327 1.81679C257.567 1.0493 259.218 0.666303 261.279 0.667805Z" fill="white"/>
</g>
<defs>
<clipPath id="clip0_1_89">
<rect width="282" height="30.75" fill="white" transform="translate(0 0.625)"/>
</clipPath>
</defs>
</svg>
